<svg fill="none" height="220" viewBox="0 0 220 220" width="220" xmlns="http://www.w3.org/2000/svg" xmlns:xlink="http://www.w3.org/1999/xlink"><linearGradient id="a" gradientUnits="userSpaceOnUse" x1="110" x2="110" y1="151.019" y2="124.038"><stop offset="0" stop-color="#fff"/><stop offset="1" stop-color="#fdebd8"/></linearGradient><linearGradient id="b" gradientUnits="userSpaceOnUse" x1="110" x2="110" y1="68" y2="161.396"><stop offset="0" stop-color="#fda64f"/><stop offset="1" stop-color="#e60023"/></linearGradient><linearGradient id="c" gradientUnits="userSpaceOnUse" x1="110" x2="110" y1="77.3396" y2="152.057"><stop offset="0" stop-color="#e60023" stop-opacity="0"/><stop offset="1" stop-color="#fff" stop-opacity=".5"/></linearGradient><clipPath id="d"><path d="m0 0h220v220h-220z"/></clipPath><g clip-path="url(#d)"><circle cx="110" cy="110" fill="#fedded" r="95"/><path d="m74.0214 48.8974c-1.0099.8075-2.1936 1.3652-3.4105 1.7815v.0083c-5.5461 1.8814-13.973-1.3403-10.7446-8.5745.8609-1.9231 2.9055-2.8305 4.5279-3.9793 2.6738-1.898 4.7847-4.3788 7.922-5.5776 1.9204-.7326 3.9899-.9823 6.0346-1.2237 11.3075-1.3403 25.5122-3.4881 36.0422.8657 3.889 1.6145 76.287 36.8104 98.862 53.8206l3.481 24.5286c-13.981-7.475-68.462-46.8482-84.264-47.8805-1.209-.0749-2.492-.1581-3.477-.8657-.626-.4516-1.065-1.1062-1.498-1.7521l-.042-.0627c-3.907-5.8357-8.543-11.1719-13.758-15.8504-5.033-4.5204-10.968-8.5579-17.6895-9.149-6.6306-.591-13.4681 2.5225-17.4001 7.9252-1.49 2.0396-2.6158 4.4122-4.586 5.9856z" fill="#ef7bb5"/><path d="m148.865 69.2936c.891.9371 1.988 1.6504 3.137 2.228l-.001.0083c5.239 2.6169 14.026.5692 11.809-7.0364-.592-2.0221-2.494-3.1987-3.945-4.5571-2.392-2.2435-4.146-4.9879-7.092-6.6015-1.803-.9866-3.819-1.5149-5.812-2.0317-11.021-2.8631-24.803-6.9195-35.826-4.0355-4.026 1.0592-78.8438 25.5443-104.3897 39.4241v21.0602c21.6012-9.771 68.5531-33.7323 82.3415-32.7523 1.2076.0899 2.49.1816 3.5621-.3857.6809-.3625 1.2047-.9514 1.7215-1.5325l.0503-.0565c4.6633-5.2511 9.9803-9.9086 15.7823-13.8357 5.6-3.7952 12.029-6.9896 18.768-6.6626 6.65.3147 13.001 4.3276 16.163 10.2142 1.2 2.223 1.993 4.7264 3.731 6.5527z" fill="#fa5f2e"/><path d="m155.947 72.5805c4.716.3502 9.577-2.208 7.863-8.087-.459-1.5694-1.708-2.6295-2.923-3.6607-.35-.2974-.697-.5923-1.022-.8964-.789-.7401-1.509-1.5347-2.225-2.3253-1.454-1.6058-2.893-3.1949-4.867-4.2762-1.803-.9866-3.819-1.5149-5.812-2.0317-.772-.2005-1.557-.4068-2.354-.6162-8.915-2.3424-19.286-5.0676-28.462-4.266 2.219 2.1557 4.32 4.4347 6.291 6.8232 2.132-.5512 4.317-.8251 6.535-.7175 6.65.3147 13.001 4.3276 16.163 10.2142.358.6639.68 1.3527 1.002 2.0411.586 1.2544 1.172 2.5072 1.974 3.604 2.479 1.2502 5.107 2.6626 7.837 4.1945z" fill="#e60023"/><path d="m75.4825 68c5.4719 0 10.5419 2.873 13.3537 7.5672l6.7294 11.2343c3.0394 5.0741 8.5194 8.1796 14.4344 8.1796s11.395-3.1055 14.434-8.1796l6.73-11.2343c2.812-4.6942 7.882-7.5672 13.353-7.5672h47.819c4.736 0 9.214 2.1559 12.168 5.8578l12.098 15.1625c2.2 2.7575 3.398 6.1806 3.398 9.7083v31.9394c0 3.527-1.198 6.95-3.398 9.708l-12.098 15.162c-2.954 3.702-7.432 5.858-12.168 5.858h-46.461c-6.183 0-11.78-3.66-14.26-9.324l-14.252-32.56c-1.281-2.924-4.17-4.814-7.363-4.814s-6.082 1.89-7.363 4.814l-14.2521 32.56c-2.4795 5.664-8.0765 9.324-14.2597 9.324h-46.4613c-4.7358 0-9.214-2.156-12.1676-5.858l-12.09788-15.162c-2.20016-2.758-3.39842-6.181-3.39842-9.708v-31.9394c0-3.5277 1.19826-6.9508 3.39842-9.7083l12.09788-15.1625c2.9536-3.7019 7.4318-5.8578 12.1676-5.8578z" fill="#8f2459"/><path d="m202.358 124.038h-80.943v-8.428c0-1.133.802-2.107 1.913-2.326.964-.19 1.712-.955 1.879-1.923l1.397-8.078h5.227c1.285 0 2.497-.595 3.283-1.611l4.733-6.1177c.786-1.0161 1.999-1.6109 3.283-1.6109h11.079c1.456 0 2.805.7627 3.556 2.0101l3.203 5.3195c.751 1.247 2.1 2.01 3.556 2.01h8.989c1.186 0 2.315.507 3.103 1.393l5.825 6.553c.787.887 1.917 1.394 3.102 1.394h6.4c1.328 0 2.576.635 3.357 1.709z" fill="#5e1741"/><path d="m28.0189 124.038h70.566l5.1891-23.868h-5.2278c-1.2847 0-2.497-.595-3.2831-1.6111l-4.7331-6.1178c-.7861-1.0161-1.9984-1.6109-3.2831-1.6109h-12.0521c-1.4905 0-2.8665.7991-3.6052 2.0937l-5.3086 9.3031c-.7387 1.295-2.1147 2.094-3.6052 2.094h-9.4765c-1.4581 0-2.8093.765-3.5594 2.015l-3.8081 6.347c-.7502 1.25-2.1013 2.015-3.5594 2.015h-6.6224c-1.5075 0-2.8965.817-3.6286 2.135z" fill="#5e1741"/><path d="m184.12 68h-36.781c.256.1269.513.2557.772.3862.231.3167.481.6204.754.9074.891.9371 1.988 1.6504 3.137 2.228l-.001.0083c1.19.594 2.562.9477 3.946 1.0506 12.692 7.1206 27.585 16.8212 39.818 24.789 9.166 5.9705 16.838 10.9675 20.971 13.1775l-3.481-24.5286c-6.512-4.907-17.171-11.3274-29.135-18.0184z" fill="#186250"/><path d="m88.4616 74.9726c-2.8734-4.341-7.7422-6.9726-12.9791-6.9726h-24.4774c-16.8802 6.2874-33.3078 12.9056-43.22207 18.1365l-.00001 21.1445c3.96908-1.81 8.70638-4.047 13.88558-6.493 23.143-10.9272 55.1099-26.021 66.793-25.8154z" fill="#186250"/><path d="m27.6639 161.396h46.4613c6.1832 0 11.7802-3.66 14.2597-9.324l12.2711-28.034h-100.656v6.63c0 3.527 1.19826 6.95 3.39842 9.708l12.09788 15.162c2.9536 3.702 7.4318 5.858 12.1676 5.858z" fill="url(#a)"/><path d="m119.344 124.038 12.271 28.034c2.48 5.664 8.077 9.324 14.26 9.324h46.461c4.736 0 9.214-2.156 12.168-5.858l12.098-15.162c2.2-2.758 3.398-6.181 3.398-9.708v-6.63z" fill="url(#a)"/><path d="m200.283 96.5377c0 3.7253-3.02 6.7453-6.745 6.7453-3.726 0-6.746-3.02-6.746-6.7453s3.02-6.7453 6.746-6.7453c3.725 0 6.745 3.02 6.745 6.7453z" fill="#f7c545"/><path clip-rule="evenodd" d="m88.8362 75.5672c-2.8118-4.6942-7.8818-7.5672-13.3537-7.5672h-47.8186c-4.7358 0-9.214 2.1559-12.1676 5.8578l-12.09788 15.1625c-2.20016 2.7575-3.39842 6.1806-3.39842 9.7083v31.9394c0 3.527 1.19826 6.95 3.39842 9.708l12.09788 15.162c2.9536 3.702 7.4318 5.858 12.1676 5.858h46.4613c6.1832 0 11.7802-3.66 14.2597-9.324l14.2521-32.56c1.281-2.924 4.17-4.814 7.363-4.814s6.082 1.89 7.363 4.814l14.252 32.56c2.48 5.664 8.077 9.324 14.26 9.324h46.461c4.736 0 9.214-2.156 12.168-5.858l12.098-15.162c2.2-2.758 3.398-6.181 3.398-9.708v-31.9394c0-3.5277-1.198-6.9508-3.398-9.7083l-12.098-15.1625c-2.954-3.7019-7.432-5.8578-12.168-5.8578h-47.819c-5.471 0-10.541 2.873-13.353 7.5672l-6.73 11.2343c-3.039 5.0741-8.519 8.1796-14.434 8.1796s-11.395-3.1055-14.4344-8.1796zm-18.3096 1.7724c3.6307 0 6.9974 1.8975 8.8776 5.0036l10.4667 17.291c3.5099 5.7988 3.9673 12.9448 1.2254 19.1438l-11.9875 27.099c-1.6617 3.757-5.3827 6.18-9.4903 6.18h-39.0094c-3.1385 0-6.1085-1.421-8.0785-3.864l-10.8921-13.509c-1.4876-1.845-2.29888-4.144-2.29888-6.514v-26.944c0-2.3702.81128-4.6688 2.29888-6.5138l10.8921-13.5089c1.97-2.4432 4.94-3.8637 8.0785-3.8637zm78.9464 0c-3.63 0-6.997 1.8975-8.877 5.0036l-10.467 17.291c-3.51 5.7988-3.967 12.9448-1.225 19.1438l11.987 27.099c1.662 3.757 5.383 6.18 9.49 6.18h39.01c3.138 0 6.108-1.421 8.078-3.864l10.892-13.509c1.488-1.845 2.299-4.144 2.299-6.514v-26.944c0-2.3702-.811-4.6688-2.299-6.5138l-10.892-13.5089c-1.97-2.4432-4.94-3.8637-8.078-3.8637z" fill="url(#b)" fill-rule="evenodd"/><g fill="url(#c)"><path d="m79.4041 82.3432c-1.8801-3.106-5.2468-5.0036-8.8775-5.0036h-39.9175c-3.1385 0-6.1085 1.4205-8.0785 3.8637l-10.8921 13.5089c-1.4876 1.845-2.2989 4.1436-2.2989 6.5138v26.944c0 2.37.8113 4.669 2.2989 6.514l10.8921 13.509c1.97 2.443 4.94 3.864 8.0785 3.864h39.0094c4.1076 0 7.8286-2.423 9.4903-6.18l11.9875-27.099c2.7419-6.199 2.2844-13.345-1.2254-19.1438z"/><path d="m140.596 82.3432c1.88-3.106 5.247-5.0036 8.877-5.0036h39.918c3.138 0 6.108 1.4205 8.078 3.8637l10.892 13.5089c1.488 1.845 2.299 4.1436 2.299 6.5138v26.944c0 2.37-.811 4.669-2.299 6.514l-10.892 13.509c-1.97 2.443-4.94 3.864-8.078 3.864h-39.01c-4.107 0-7.828-2.423-9.49-6.18l-11.987-27.099c-2.742-6.199-2.285-13.345 1.225-19.1438z"/></g></g></svg>