<svg fill="none" height="220" viewBox="0 0 220 220" width="220" xmlns="http://www.w3.org/2000/svg" xmlns:xlink="http://www.w3.org/1999/xlink"><linearGradient id="a" gradientUnits="userSpaceOnUse" x1="204.826" x2="38.7184" y1="17.9646" y2="184.072"><stop offset="0" stop-color="#e2f0fd"/><stop offset="1" stop-color="#fff" stop-opacity=".5"/></linearGradient><linearGradient id="b" gradientUnits="userSpaceOnUse" x1="18.0133" x2="168.015" y1="141.519" y2="129.446"><stop offset="0" stop-color="#fdc4e1"/><stop offset="1" stop-color="#e2e6fd"/></linearGradient><clipPath id="c"><path d="m15 100c0-55.2285 44.7715-100 100-100h105v105c0 55.228-44.772 100-100 100h-10c-52.4671 0-95-42.533-95-95z"/></clipPath><circle cx="110" cy="110" fill="#c4e0f8" r="95"/><g clip-path="url(#c)"><path d="m188.748 14.0853 16.673 16.6732-7.579 7.5788c1.674 1.6742 1.674 4.3887 0 6.063l-3.031 3.0315c-1.675 1.6742-4.389 1.6742-6.063 0l-21.276 21.2757-1.145 49.8625c-.203 8.821-3.797 17.225-10.037 23.465l-64.5503 64.55c-8.3713 8.372-21.9437 8.372-30.315 0l-48.5039-48.504c-8.37121-8.371-8.37122-21.943 0-30.315l64.4358-64.4354c6.3077-6.3077 14.8248-9.9096 23.7444-10.0417l49.171-.728 21.802-21.8024c-1.674-1.6742-1.674-4.3887 0-6.0629l3.032-3.0315c1.674-1.6743 4.389-1.6743 6.063 0z" fill="url(#a)"/><path d="m62.2051 146.583c-29.5441-29.544-40.8713-27.229-40.8713-27.229l56.3892-56.3897s5.7703-7.1059 40.489 27.6124z" fill="#2086df"/><path d="m198.6 5.74878 15.158 15.15742-18.189 15.1575-12.126-12.126z" fill="#e60023"/><path d="m203.836 29.174-8.268 6.8897-12.125-12.1259 6.889-8.2678z" fill="#c4cdf8"/><path d="m147.929 114.771c7.5-1.478 14.648 3.805 15.437 11.408.802 7.733-5.32 14.435-13.094 14.334l-58.9804-.768-72.1383 19.558-3.8206-33.67 75.5163.386z" fill="url(#b)"/><path d="m88.9704 130.214 2.2868-1.876 2.8495 2.485-19.5625 26.591-7.5355-9.188 18.0728-14.823-20.196-14.068 7.2332-8.798z" fill="#ef7bb5"/><path clip-rule="evenodd" d="m89.8715 142.573-.8171-18.799 4.8578-.211.817 18.799z" fill="#ef7bb5" fill-rule="evenodd"/><path d="m90.8489 126.019-1.6982-.026.1709 3.933-.3512.288-3.6167-4.223-10.9942-.057 10.722 7.469-14.616 11.988 16.1434-4.376 3.0164-4.101.14 3.221 1.5262-.39 3.3257.043-.6254-14.389z" fill="#e60023"/><path clip-rule="evenodd" d="m145.188 127.476c-.461-5.09 3.272-9.614 8.326-10.224l.257 2.128c-3.923.474-6.803 3.987-6.448 7.903l.267 2.952c.327 3.615 4.153 5.802 7.434 4.249 1.799-.851 2.957-2.65 2.988-4.64l.054-3.535c.017-1.135-.924-2.05-2.058-2.001-1.088.048-1.932.968-1.884 2.056l.14 3.226-2.142.093-.14-3.226c-.099-2.271 1.662-4.192 3.933-4.29 2.366-.103 4.331 1.807 4.294 4.175l-.054 3.535c-.043 2.806-1.677 5.344-4.214 6.545-4.629 2.19-10.024-.894-10.486-5.994z" fill="#ef7bb5" fill-rule="evenodd"/><path d="m32.4415 136.784c-7.9159-7.916-11.0388-17.5-11.0388-17.5l54.4216-54.4213s3.2513 9.3143 11.238 17.3009z" fill="#223077"/></g></svg>